<?xml version="1.0" standalone="no"?><!DOCTYPE svg PUBLIC "-//W3C//DTD SVG 1.1//EN" "http://www.w3.org/Graphics/SVG/1.1/DTD/svg11.dtd"><svg t="1747373748433" class="icon" viewBox="0 0 1024 1024" version="1.1" xmlns="http://www.w3.org/2000/svg" p-id="1275" xmlns:xlink="http://www.w3.org/1999/xlink" width="128" height="128"><path d="M89.429333 411.4432C89.429333 187.733333 269.448533 6.5536 491.52 6.5536c222.208 0 402.090667 181.248 402.090667 404.8896 0 107.383467-42.325333 210.3296-117.896534 286.446933L491.52 984.2688l-284.125867-286.378667A402.773333 402.773333 0 0 1 89.429333 411.4432zM364.544 538.624a179.950933 179.950933 0 0 0 126.976 52.974933 178.312533 178.312533 0 0 0 126.293333-52.770133 178.7904 178.7904 0 0 0 52.8384-127.112533c0-47.650133-18.909867-93.3888-52.906666-127.112534A176.810667 176.810667 0 0 0 491.52 231.6288a181.111467 181.111467 0 0 0-126.976 52.8384 181.0432 181.0432 0 0 0 0 254.088533z" p-id="1276"></path></svg>