<?xml version="1.0" standalone="no"?><!DOCTYPE svg PUBLIC "-//W3C//DTD SVG 1.1//EN" "http://www.w3.org/Graphics/SVG/1.1/DTD/svg11.dtd"><svg t="1747292984540" class="icon" viewBox="0 0 1024 1024" version="1.1" xmlns="http://www.w3.org/2000/svg" p-id="1215" xmlns:xlink="http://www.w3.org/1999/xlink" width="128" height="128"><path d="M915.626667 374.272a52.565333 52.565333 0 0 0-30.037334-35.925333L389.802667 118.357333a52.906667 52.906667 0 0 0-69.802667 26.922667L205.098667 404.224a52.906667 52.906667 0 0 0 26.88 69.76l426.794666 189.44a52.949333 52.949333 0 0 0 62.677334-15.189333l183.893333-228.266667a52.608 52.608 0 0 0 10.24-45.653333z m-241.066667 217.344L278.698667 416l99.413333-224 455.68 202.112-159.146667 197.546667z m271.872-70.528A36.010667 36.010667 0 0 0 896 528.213333l-100.437333 133.290667a36.010667 36.010667 0 0 0 57.514666 43.349333l100.437334-133.290666a36.010667 36.010667 0 0 0-7.082667-50.432z m-365.994667 162.56L268.373333 545.28a36.010667 36.010667 0 1 0-29.226666 65.749333l122.197333 54.186667-36.522667 76.501333H177.450667V640a36.010667 36.010667 0 1 0-71.978667 0v275.456a36.010667 36.010667 0 1 0 71.978667 0V813.653333h170.026666a36.053333 36.053333 0 0 0 31.445334-18.474666 38.4 38.4 0 0 0 1.706666-3.072l46.592-97.706667 123.989334 55.04a35.968 35.968 0 1 0 29.226666-65.834667z" p-id="1216"></path><path d="M404.181333 324.138667l48.512 20.992a36.010667 36.010667 0 1 0 28.586667-66.133334l-48.554667-20.949333a36.010667 36.010667 0 0 0-28.544 66.090667z" p-id="1217"></path></svg>