<?xml version="1.0" standalone="no"?><!DOCTYPE svg PUBLIC "-//W3C//DTD SVG 1.1//EN" "http://www.w3.org/Graphics/SVG/1.1/DTD/svg11.dtd"><svg t="1704200142322" class="icon" viewBox="0 0 1024 1024" version="1.1" xmlns="http://www.w3.org/2000/svg" p-id="3734" xmlns:xlink="http://www.w3.org/1999/xlink" width="144" height="144"><path d="M54.857143 804.571429a18.285714 18.285714 0 0 1-18.285714-18.285715v-585.142857a18.285714 18.285714 0 0 1 18.285714-18.285714H950.857143a18.285714 18.285714 0 0 1 0 36.571428H73.142857v566.857143a18.285714 18.285714 0 0 1-18.285714 18.285715z" p-id="3735" fill="#0b0404"></path><path d="M786.285714 841.142857a128 128 0 1 1 128-128 128 128 0 0 1-128 128z m0-219.428571a91.428571 91.428571 0 1 0 91.428572 91.428571 91.428571 91.428571 0 0 0-91.428572-91.428571z" fill="#0b0404" p-id="3736"></path><path d="M786.285714 621.714286a18.285714 18.285714 0 0 1-18.285714-18.285715v-73.142857a18.285714 18.285714 0 0 1 36.571429 0v73.142857a18.285714 18.285714 0 0 1-18.285715 18.285715zM863.817143 653.897143a18.285714 18.285714 0 0 1-12.8-31.085714l51.565714-51.931429a18.285714 18.285714 0 0 1 25.965714 25.965714L877.714286 648.411429a17.188571 17.188571 0 0 1-13.897143 5.485714zM969.142857 731.428571h-73.142857a18.285714 18.285714 0 0 1 0-36.571428h73.142857a18.285714 18.285714 0 0 1 0 36.571428zM914.285714 860.891429a18.651429 18.651429 0 0 1-13.165714-5.485715L851.017143 804.571429a17.92 17.92 0 1 1 25.6-25.6l51.931428 51.565714a18.651429 18.651429 0 0 1 0 25.965714 18.285714 18.285714 0 0 1-14.262857 4.388572zM786.285714 914.285714a18.285714 18.285714 0 0 1-18.285714-18.285714v-73.142857a18.285714 18.285714 0 0 1 36.571429 0v73.142857a18.285714 18.285714 0 0 1-18.285715 18.285714zM658.285714 860.891429a18.285714 18.285714 0 0 1-12.8-5.485715 18.651429 18.651429 0 0 1 0-25.965714L694.857143 777.874286a17.92 17.92 0 1 1 25.6 25.6l-51.565714 51.931428a18.651429 18.651429 0 0 1-10.605715 5.485715zM676.571429 731.428571h-73.142858a18.285714 18.285714 0 0 1 0-36.571428h73.142858a18.285714 18.285714 0 0 1 0 36.571428zM708.754286 653.897143a17.188571 17.188571 0 0 1-12.8-5.485714l-51.931429-51.565715a18.285714 18.285714 0 0 1 25.965714-25.965714L721.554286 621.714286a18.285714 18.285714 0 0 1-12.8 31.085714z" fill="#0b0404" p-id="3737"></path><path d="M950.857143 493.714286a18.285714 18.285714 0 0 1-18.285714-18.285715V201.142857a18.285714 18.285714 0 0 1 36.571428 0V475.428571a18.285714 18.285714 0 0 1-18.285714 18.285715zM512 804.571429H54.857143a18.285714 18.285714 0 0 1 0-36.571429H512a18.285714 18.285714 0 0 1 0 36.571429zM310.857143 731.428571a54.857143 54.857143 0 1 1 54.857143-54.857142A54.857143 54.857143 0 0 1 310.857143 731.428571z m0-73.142857a18.285714 18.285714 0 1 0 18.285714 18.285715 18.285714 18.285714 0 0 0-18.285714-18.285715z" p-id="3738" fill="#0b0404"></path><path d="M457.142857 676.571429m-54.857143 0a54.857143 54.857143 0 1 0 109.714286 0 54.857143 54.857143 0 1 0-109.714286 0Z" p-id="3739" fill="#0b0404"></path></svg>