<?xml version="1.0" standalone="no"?><!DOCTYPE svg PUBLIC "-//W3C//DTD SVG 1.1//EN" "http://www.w3.org/Graphics/SVG/1.1/DTD/svg11.dtd"><svg t="1703953953553" class="icon" viewBox="0 0 1024 1024" version="1.1" xmlns="http://www.w3.org/2000/svg" p-id="16474" xmlns:xlink="http://www.w3.org/1999/xlink" width="144" height="144"><path d="M497.687 488.145a9.542 9.542 0 1 0 19.084 0 9.542 9.542 0 1 0-19.084 0z" fill="#8A8A8A" p-id="16475"></path><path d="M124.547 82.362c150.16 148.653 300.32 296.804 450.48 445.458 21.093 21.092 42.185 42.185 63.78 62.775v-21.092l-64.282 64.282 25.612 10.547c2.511-25.613-3.515-53.737-14.564-76.838-24.106-49.719-76.335-67.296-129.067-66.291 4.52 2.51 8.538 5.022 13.058 7.533-94.918-129.57-189.835-258.637-284.752-388.206-13.56-18.08-26.617-36.16-40.176-54.74-11.551-15.57-37.666-0.503-26.115 15.065 58.256 79.349 116.01 158.196 174.266 237.544 37.665 51.225 75.33 102.45 112.494 153.676 10.546 14.564 21.595 29.128 32.141 44.194 2.01 2.51 3.516 5.022 5.525 7.533 11.048 11.55 25.11 7.03 40.176 8.537 58.256 6.53 91.904 55.745 86.882 112.495-1.507 13.56 17.075 19.084 25.612 10.546l64.283-64.282c5.524-5.525 6.026-15.569 0-21.093C509.74 421.352 359.58 273.2 209.42 124.547c-21.092-21.092-42.185-42.185-63.78-62.776-13.56-14.061-34.652 7.031-21.093 20.59z" fill="#8A8A8A" p-id="16476"></path><path d="M824.122 717.654c-1.507 65.789-53.737 120.53-121.032 121.032-65.79 0-121.032-55.243-121.032-121.032 0-65.79 54.74-121.032 121.032-121.032 67.295 0 119.525 55.243 121.032 121.032 0.502 19.586 30.634 19.586 30.132 0-1.507-62.274-38.168-118.019-96.926-141.12-59.26-22.6-128.565-4.52-169.244 43.692-40.678 48.714-46.705 120.53-13.56 175.27 32.644 53.736 95.922 81.357 157.192 70.309 71.815-13.058 121.031-76.838 123.04-148.151 0-19.586-30.132-19.586-30.634 0z" fill="#8A8A8A" p-id="16477"></path><path d="M818.095 818.597c8.035-8.537 16.573-17.075 24.608-25.612-8.035-1.005-15.568-2.009-23.603-3.013 22.097 38.167 44.194 75.833 65.789 114l20.59-20.59c-38.67-21.093-76.838-41.683-115.507-62.776 1.004 8.035 2.008 15.569 3.013 23.604 8.537-8.538 16.573-17.075 25.11-25.613 13.56-14.061-7.533-35.154-21.093-21.092-8.035 8.537-16.572 17.075-24.608 25.612-6.528 6.529-5.524 19.084 3.014 23.604 38.67 21.093 76.837 41.683 115.507 62.776 13.058 7.03 28.124-7.533 20.59-20.59-22.096-38.168-44.194-75.834-65.788-114.002-5.023-8.537-17.076-10.044-23.604-3.013-8.036 8.538-16.573 17.075-24.608 25.613-14.564 13.56 7.03 35.154 20.59 21.092zM593.61 514.26c92.908-126.054 185.314-252.61 278.222-378.664 13.058-18.08 26.115-35.657 39.675-53.736 11.55-15.569-14.564-30.635-26.115-15.066-92.908 126.053-185.314 252.61-278.223 378.664-13.057 18.079-26.115 35.656-39.674 53.736-11.55 15.066 14.564 30.132 26.115 15.066z m-153.173-14.062c-23.604 23.102-46.706 46.203-70.31 69.305-6.026 5.524-5.524 15.568 0 21.092l64.283 64.283c8.538 8.537 27.12 3.013 25.613-10.546-4.018-43.19 14.564-85.878 55.242-104.46 17.578-8.035 2.01-34.15-15.066-26.114-48.714 23.101-74.829 77.842-69.807 130.574l25.613-10.547-64.283-64.282v21.092c23.604-23.101 46.706-46.203 70.31-69.304 13.057-13.56-8.036-34.652-21.595-21.093z" fill="#8A8A8A" p-id="16478"></path><path d="M883.884 61.27C773.4 170.75 662.914 280.23 551.925 389.712c-16.07 15.568-31.639 31.639-47.71 47.207-13.559 13.56 7.534 35.155 21.093 21.093 110.486-109.481 221.474-218.962 331.96-328.444 16.07-15.568 31.638-31.639 47.709-47.207 14.062-13.56-7.03-34.652-21.093-21.093zM175.27 717.653c1.507 62.273 38.168 118.018 96.926 141.12 59.26 22.6 128.565 4.52 169.244-43.692 40.679-48.714 46.705-120.53 13.56-175.27-32.644-53.736-95.922-81.358-157.191-70.31-71.314 13.058-120.53 76.838-122.539 148.152-0.502 19.586 29.63 19.586 30.133 0 1.506-65.79 53.736-120.53 121.032-121.032 65.789 0 121.031 55.243 121.031 121.032-0.502 65.789-55.242 121.032-121.031 121.032-67.296 0-119.024-54.74-121.032-121.032-0.503-19.586-30.635-19.586-30.133 0z m596.622 0c-1.507 37.163-30.132 68.3-68.3 68.3-37.163 0-68.3-31.137-68.3-68.3 0-37.164 31.137-68.803 68.3-68.3 38.67 0 66.793 30.634 68.3 68.3 1.005 19.084 31.137 19.586 30.133 0-2.01-53.736-43.19-98.433-98.433-98.433-53.234 0-98.935 45.199-98.433 98.433 0 53.736 44.697 98.432 98.433 98.432 55.243 0 96.424-45.198 98.433-98.432 1.004-19.586-29.128-19.586-30.133 0z" fill="#8A8A8A" p-id="16479"></path><path d="M396.241 717.654c-1.506 37.163-30.132 68.3-68.3 68.3-37.163 0-68.3-31.137-68.3-68.3 0-37.164 31.137-68.803 68.3-68.3 38.67 0 66.794 30.634 68.3 68.3 1.005 19.084 31.137 19.586 30.133 0-2.01-53.736-43.19-98.433-98.433-98.433-53.234 0-98.935 45.199-98.432 98.433 0 53.736 44.696 98.432 98.432 98.432 55.243 0 96.424-45.198 98.433-98.432 1.004-19.586-29.128-19.586-30.133 0z" fill="#8A8A8A" p-id="16480"></path></svg>