<?xml version="1.0" standalone="no"?><!DOCTYPE svg PUBLIC "-//W3C//DTD SVG 1.1//EN" "http://www.w3.org/Graphics/SVG/1.1/DTD/svg11.dtd"><svg t="1703947250292" class="icon" viewBox="0 0 1024 1024" version="1.1" xmlns="http://www.w3.org/2000/svg" p-id="7823" xmlns:xlink="http://www.w3.org/1999/xlink" width="144" height="144"><path d="M899.513379 215.163586l-24.028689-24.028689-167.794759-167.812414-0.03531-0.017655-13.594483-13.612138A32.962207 32.962207 0 0 0 670.631724 0H158.24331C137.286621 0 114.758621 16.172138 114.758621 51.659034V988.689655c0 14.777379 14.848 29.166345 32.414896 33.703724 0.900414 0.247172 1.765517 0.582621 2.683586 0.759173 2.754207 0.54731 5.561379 0.847448 8.386207 0.847448h707.51338c2.824828 0 5.632-0.300138 8.386207-0.847448 0.918069-0.176552 1.783172-0.512 2.683586-0.759173 17.566897-4.537379 32.414897-18.926345 32.414896-33.703724V246.784c0-13.541517-1.641931-23.552-9.728-31.620414zM697.37931 62.94069L846.30069 211.862069H697.37931V62.94069zM158.24331 988.689655c-1.253517 0-2.383448-0.441379-3.495724-0.865103a8.121379 8.121379 0 0 1-4.67862-7.309242V723.862069h723.862068v256.653241a8.121379 8.121379 0 0 1-4.67862 7.309242c-1.112276 0.423724-2.242207 0.865103-3.495724 0.865103H158.24331zM150.068966 688.551724V51.659034c0-3.831172 0.582621-16.34869 8.174344-16.348689h504.849656a27.188966 27.188966 0 0 0-1.024 6.903172V243.288276a52.541793 52.541793 0 0 0-35.310345-13.771035 17.655172 17.655172 0 1 0 0 35.310345c9.745655 0 17.655172 7.927172 17.655172 17.655173v70.620689c0 21.186207 9.569103 40.006621 24.399448 52.965518a70.17931 70.17931 0 0 0-24.399448 52.965517v70.620689c0 9.728-7.909517 17.655172-17.655172 17.655173a17.655172 17.655172 0 1 0 0 35.310345c29.201655 0 52.965517-23.763862 52.965517-52.965518v-70.620689c0-19.473655 15.83669-35.310345 35.310345-35.310345a17.655172 17.655172 0 1 0 0-35.310345c-19.473655 0-35.310345-15.83669-35.310345-35.310345v-70.620689a52.612414 52.612414 0 0 0-13.771035-35.310345h201.074759c2.383448 0 4.678621-0.441379 6.903172-1.024l0.017656 0.635586V688.551724H150.068966z" p-id="7824"></path><path d="M353.703724 811.325793c4.254897-5.402483 9.092414-9.198345 14.477242-11.458207s11.069793-3.372138 17.019586-3.372138c5.314207 0 10.416552 1.05931 15.324689 3.142621s9.374897 5.473103 13.400276 10.134069l20.038621-17.867035c-6.603034-6.426483-14.088828-11.264-22.439724-14.477241s-17.37269-4.819862-27.030069-4.819862c-10.469517 0-20.197517 1.959724-29.201655 5.914483s-16.86069 9.69269-23.534345 17.266758-11.917241 17.019586-15.695448 28.354207c-3.778207 11.352276-5.66731 24.505379-5.667311 39.459311s1.889103 28.16 5.667311 39.582896c3.778207 11.422897 9.021793 20.921379 15.695448 28.477793s14.477241 13.27669 23.410758 17.143173 18.714483 5.790897 29.325242 5.790896c9.657379 0 18.679172-1.606621 27.030069-4.819862s15.83669-8.050759 22.439724-14.477241l-20.038621-17.619862c-4.184276 4.678621-8.809931 8.050759-13.876965 10.134069s-10.504828 3.142621-16.295724 3.14262-11.316966-1.235862-16.542897-3.742896-9.904552-6.426483-14.000552-11.828966-7.326897-12.340966-9.657379-20.886069-3.584-18.820414-3.742897-30.896551c0.158897-12.393931 1.447724-22.845793 3.866483-31.373242s5.773241-15.501241 10.028138-20.903724zM556.702897 866.233379c-5.543724-4.025379-11.546483-7.450483-17.990621-10.257655s-12.393931-5.702621-17.867035-8.686345-10.045793-6.426483-13.753379-10.381241-5.543724-9.145379-5.543724-15.571862c0-2.577655 0.635586-5.278897 1.924414-8.086069s3.054345-5.349517 5.314207-7.609379 4.819862-4.13131 7.732965-5.667311 5.949793-2.454069 9.18069-2.771862c5.790897-0.47669 10.540138-0.564966 14.247724-0.247172s6.673655 0.882759 8.933517 1.694896 3.990069 1.606621 5.190621 2.418759 2.295172 1.447724 3.266207 1.924414c0.158897-0.158897 0.635586-0.971034 1.447724-2.418759s1.783172-3.266207 2.895448-5.437793l3.619311-6.991448a149.892414 149.892414 0 0 0 3.372137-6.885518c-4.678621-3.054345-10.769655-5.278897-18.343724-6.638344s-15.059862-2.048-22.439724-2.048c-7.238621 0-14.124138 1.112276-20.638896 3.372138s-12.217379 5.526069-17.143173 9.780965-8.809931 9.445517-11.705379 15.571862-4.343172 13.117793-4.343173 20.992c0 8.686345 1.836138 15.924966 5.543725 21.715862s8.368552 10.822621 14.000551 15.077517 11.670069 7.962483 18.096552 11.105104 12.429241 6.267586 17.990621 9.410207 10.169379 6.638345 13.876965 10.504827 5.543724 8.527448 5.543724 14.000552c0 9.021793-2.612966 15.819034-7.838896 20.391724s-12.76469 6.885517-22.56331 6.885518c-3.230897 0-6.673655-0.335448-10.381242-0.971035s-7.397517-1.483034-11.105103-2.542345-7.273931-2.171586-10.734345-3.372138-6.302897-2.454069-8.562759-3.742896l-5.067034 20.762482c2.736552 2.418759 6.002759 4.466759 9.780965 6.161656s7.750621 3.019034 11.952552 3.990069 8.333241 1.659586 12.429241 2.048 8.086069 0.600276 11.952552 0.600275c9.021793 0 17.054897-1.359448 24.134621-4.096s13.029517-6.391172 17.867034-10.981517 8.562759-9.904552 11.22869-15.924965 3.990069-12.270345 3.990069-18.714483c0-9.498483-1.836138-17.266759-5.543724-23.287172s-8.386207-11.052138-13.947586-15.077518zM687.527724 866.233379c-5.543724-4.025379-11.546483-7.450483-17.990621-10.257655s-12.393931-5.702621-17.867034-8.686345-10.045793-6.426483-13.753379-10.381241-5.543724-9.145379-5.543724-15.571862c0-2.577655 0.635586-5.278897 1.924413-8.086069s3.054345-5.349517 5.314207-7.609379 4.819862-4.13131 7.732966-5.667311 5.949793-2.454069 9.180689-2.771862c5.790897-0.47669 10.540138-0.564966 14.247725-0.247172s6.673655 0.882759 8.933517 1.694896 3.990069 1.606621 5.19062 2.418759 2.295172 1.447724 3.266207 1.924414c0.158897-0.158897 0.635586-0.971034 1.447724-2.418759s1.783172-3.266207 2.895449-5.437793l3.61931-6.991448a149.892414 149.892414 0 0 0 3.372138-6.885518c-4.678621-3.054345-10.769655-5.278897-18.343724-6.638344s-15.059862-2.048-22.439724-2.048c-7.238621 0-14.124138 1.112276-20.638897 3.372138s-12.217379 5.526069-17.143172 9.780965-8.809931 9.445517-11.70538 15.571862-4.343172 13.117793-4.343172 20.992c0 8.686345 1.836138 15.924966 5.543724 21.715862s8.368552 10.822621 14.000552 15.077517 11.670069 7.962483 18.096552 11.105104 12.429241 6.267586 17.99062 9.410207 10.169379 6.638345 13.876966 10.504827 5.543724 8.527448 5.543724 14.000552c0 9.021793-2.612966 15.819034-7.838897 20.391724s-12.76469 6.885517-22.56331 6.885518c-3.230897 0-6.673655-0.335448-10.381241-0.971035s-7.397517-1.483034-11.105104-2.542345-7.273931-2.171586-10.734345-3.372138-6.302897-2.454069-8.562758-3.742896l-5.067035 20.762482c2.736552 2.418759 6.002759 4.466759 9.780966 6.161656s7.750621 3.019034 11.952552 3.990069 8.333241 1.659586 12.429241 2.048 8.086069 0.600276 11.952552 0.600275c9.021793 0 17.054897-1.359448 24.13462-4.096s13.029517-6.391172 17.867035-10.981517 8.562759-9.904552 11.22869-15.924965 3.990069-12.270345 3.990068-18.714483c0-9.498483-1.836138-17.266759-5.543724-23.287172s-8.386207-11.052138-13.947586-15.077518zM361.931034 353.103448v-70.620689c0-9.728 7.909517-17.655172 17.655173-17.655173a17.655172 17.655172 0 1 0 0-35.310345c-29.201655 0-52.965517 23.763862-52.965517 52.965518v70.620689c0 19.473655-15.83669 35.310345-35.310345 35.310345a17.655172 17.655172 0 1 0 0 35.310345c19.473655 0 35.310345 15.83669 35.310345 35.310345v70.620689c0 29.201655 23.763862 52.965517 52.965517 52.965518a17.655172 17.655172 0 1 0 0-35.310345c-9.745655 0-17.655172-7.927172-17.655173-17.655173v-70.620689c0-21.186207-9.569103-40.006621-24.399448-52.965517a70.17931 70.17931 0 0 0 24.399448-52.965518z" p-id="7825"></path></svg>