<?xml version="1.0" standalone="no"?><!DOCTYPE svg PUBLIC "-//W3C//DTD SVG 1.1//EN" "http://www.w3.org/Graphics/SVG/1.1/DTD/svg11.dtd"><svg t="1704019434188" class="icon" viewBox="0 0 1024 1024" version="1.1" xmlns="http://www.w3.org/2000/svg" p-id="18649" xmlns:xlink="http://www.w3.org/1999/xlink" width="144" height="144"><path d="M789.333333 362.666667v366.933333H128V362.666667h661.333333zM290.133333 435.2c-55.466667 0-55.466667 0-89.6 34.133333s-34.133333 34.133333-34.133333 89.6c0 51.2 0 51.2 29.866667 85.333334 29.866667 29.866667 29.866667 29.866667 85.333333 29.866666 34.133333 0 34.133333 0 59.733333-8.533333l8.533334-4.266667v-46.933333c-25.6 12.8-25.6 12.8-55.466667 12.8-29.866667 0-29.866667 0-51.2-21.333333-17.066667-21.333333-17.066667-21.333333-17.066667-55.466667s0-34.133333 21.333334-55.466667 21.333333-21.333333 51.2-21.333333c25.6 0 25.6 0 46.933333 8.533333l8.533333 4.266667v-51.2H290.133333z m166.4 0c-17.066667 0-17.066667 0-34.133333 4.266667s-17.066667 4.266667-29.866667 12.8c-12.8 8.533333-12.8 8.533333-21.333333 21.333333s-8.533333 12.8-8.533333 29.866667c0 21.333333 0 21.333333 12.8 38.4s12.8 17.066667 38.4 25.6c8.533333 4.266667 8.533333 4.266667 21.333333 8.533333l17.066667 8.533333c8.533333 4.266667 8.533333 4.266667 8.533333 8.533334 4.266667 4.266667 4.266667 4.266667 4.266667 12.8 0 4.266667 0 4.266667-4.266667 8.533333l-8.533333 8.533333c-4.266667 4.266667-4.266667 4.266667-12.8 4.266667h-17.066667c-17.066667 0-17.066667 0-34.133333-4.266667-4.266667 0-4.266667 0-17.066667-8.533333l-4.266667-4.266667v51.2c12.8 8.533333 12.8 8.533333 29.866667 8.533334 17.066667 4.266667 17.066667 4.266667 34.133333 4.266666s17.066667 0 34.133334-4.266666 17.066667-4.266667 29.866666-12.8c12.8-8.533333 12.8-8.533333 21.333334-21.333334s8.533333-12.8 8.533333-34.133333c0-12.8 0-12.8-4.266667-25.6-4.266667-8.533333-4.266667-8.533333-12.8-17.066667-8.533333-8.533333-8.533333-8.533333-17.066666-12.8-12.8-8.533333-12.8-8.533333-25.6-12.8l-17.066667-8.533333c-8.533333-4.266667-8.533333-4.266667-12.8-8.533333-8.533333-4.266667-8.533333-4.266667-12.8-8.533334-4.266667-4.266667-4.266667-4.266667-4.266667-8.533333s0-4.266667 4.266667-8.533333l8.533333-8.533334c4.266667-4.266667 4.266667-4.266667 12.8-4.266666h29.866667c8.533333 0 8.533333 0 12.8 4.266666 8.533333 0 8.533333 0 12.8 4.266667 4.266667 0 4.266667 0 8.533333 4.266667l4.266667 4.266666v-46.933333l-25.6-8.533333c-12.8-4.266667-12.8-4.266667-29.866667-4.266667z m128 4.266667h-55.466666l76.8 230.4h59.733333l81.066667-230.4h-55.466667L640 597.333333c-4.266667 8.533333-4.266667 8.533333-4.266667 17.066667v4.266667c0-8.533333 0-8.533333-4.266666-17.066667V597.333333l-46.933334-157.866666z" p-id="18650"></path><path d="M896 183.466667V896H238.933333v-136.533333h55.466667v81.066666h550.4V183.466667H294.4v145.066666H238.933333V128H896v55.466667z" p-id="18651"></path></svg>