<?xml version="1.0" standalone="no"?><!DOCTYPE svg PUBLIC "-//W3C//DTD SVG 1.1//EN" "http://www.w3.org/Graphics/SVG/1.1/DTD/svg11.dtd"><svg t="1704093294067" class="icon" viewBox="0 0 1024 1024" version="1.1" xmlns="http://www.w3.org/2000/svg" p-id="12163" id="mx_n_1704093294068" xmlns:xlink="http://www.w3.org/1999/xlink" width="144" height="144"><path d="M908.970667 913.066667a34.133333 34.133333 0 0 1-24.149334-9.984L719.018667 737.194667a34.133333 34.133333 0 0 1 48.298666-48.298667l165.802667 165.802667a34.133333 34.133333 0 0 1-24.149333 58.282666z" p-id="12164"></path><path d="M507.818667 844.8a365.738667 365.738667 0 0 1-259.413334-107.605333 34.133333 34.133333 0 0 1 48.298667-48.298667 298.666667 298.666667 0 1 0 0-422.4 34.133333 34.133333 0 0 1-48.298667-48.298667A366.933333 366.933333 0 1 1 507.818667 844.8z" p-id="12165"></path><path d="M384 385.792h68.266667a12.8 12.8 0 0 0 0-25.6h-68.266667a12.8 12.8 0 0 0 0 25.6zM264.533333 385.792h2.816a34.133333 34.133333 0 0 0 61.269334 0H332.8a12.8 12.8 0 0 0 0-25.6h-2.645333a34.133333 34.133333 0 0 0-64.426667 0H264.533333a12.8 12.8 0 0 0 0 25.6zM145.066667 385.792h68.266666a12.8 12.8 0 0 0 0-25.6h-68.266666a12.8 12.8 0 0 0 0 25.6zM213.333333 590.592h-68.266666a12.8 12.8 0 0 0 0 25.6h68.266666a12.8 12.8 0 0 0 0-25.6zM332.8 590.592h-2.645333a34.133333 34.133333 0 0 0-64.426667 0H264.533333a12.8 12.8 0 0 0 0 25.6h2.816a34.133333 34.133333 0 0 0 61.269334 0H332.8a12.8 12.8 0 0 0 0-25.6zM452.266667 590.592h-68.266667a12.8 12.8 0 0 0 0 25.6h68.266667a12.8 12.8 0 0 0 0-25.6zM553.813333 449.962667a34.133333 34.133333 0 0 0-32.938666 25.6H452.266667a12.8 12.8 0 0 0 0 25.6h68.266666a12.629333 12.629333 0 0 0 3.669334-0.597334 34.133333 34.133333 0 1 0 29.781333-50.517333zM174.762667 488.192a12.8 12.8 0 0 0-12.8-12.8H93.866667a12.8 12.8 0 0 0 0 25.6h68.266666a12.8 12.8 0 0 0 12.629334-12.8zM332.8 475.392a12.8 12.8 0 0 0 0 25.6h68.266667a12.8 12.8 0 0 0 0-25.6zM213.333333 475.392a12.8 12.8 0 0 0 0 25.6h68.266667a12.8 12.8 0 0 0 0-25.6z" p-id="12166"></path></svg>