<?xml version="1.0" standalone="no"?><!DOCTYPE svg PUBLIC "-//W3C//DTD SVG 1.1//EN" "http://www.w3.org/Graphics/SVG/1.1/DTD/svg11.dtd">
<svg t="1737681227326" class="icon" viewBox="0 0 1024 1024" version="1.1"
  xmlns="http://www.w3.org/2000/svg" p-id="3590"
  xmlns:xlink="http://www.w3.org/1999/xlink" width="128" height="128">
  <path d="M916.48 916.48H104.96V104.96h811.52v811.52z m-760.32-51.2h709.12V156.16H156.16v709.12z" p-id="3591"></path>
  <path d="M296.96 25.6h51.2v104.96h-51.2zM486.4 25.6h51.2v104.96h-51.2zM675.84 25.6h51.2v104.96h-51.2zM675.84 893.44h51.2V998.4h-51.2zM486.4 893.44h51.2V998.4h-51.2zM296.96 893.44h51.2V998.4h-51.2zM25.6 675.84h104.96v51.2H25.6zM25.6 486.4h104.96v51.2H25.6zM25.6 296.96h104.96v51.2H25.6zM893.44 296.96H998.4v51.2h-104.96zM893.44 486.4H998.4v51.2h-104.96zM893.44 675.84H998.4v51.2h-104.96zM747.52 537.6H273.92V273.92h473.6V537.6z m-422.4-51.2h371.2v-161.28H325.12V486.4zM279.04 675.84h465.92v51.2H279.04z" p-id="3592"></path>
</svg>