<?xml version="1.0" standalone="no"?><!DOCTYPE svg PUBLIC "-//W3C//DTD SVG 1.1//EN" "http://www.w3.org/Graphics/SVG/1.1/DTD/svg11.dtd"><svg t="1704024403138" class="icon" viewBox="0 0 1024 1024" version="1.1" xmlns="http://www.w3.org/2000/svg" p-id="33747" xmlns:xlink="http://www.w3.org/1999/xlink" width="144" height="144"><path d="M928.1536 415.5392C928.1536 185.9584 741.9904 0 512.6144 0c-229.5808 0-415.744 185.9584-415.744 415.5392 0 184.7296 120.4224 341.1968 286.9248 395.264l-123.0848 212.992H763.904l-123.0848-212.992c166.912-54.0672 287.3344-210.5344 287.3344-395.264zM581.632 838.8608l69.0176 119.6032H374.3744l69.0176-119.6032 7.168-12.288c20.2752 3.072 40.96 4.5056 62.0544 4.5056s41.7792-1.6384 62.0544-4.5056l6.9632 12.288z m25.8048-86.2208c-22.3232 6.144-45.2608 10.24-68.8128 12.0832-8.6016 0.6144-17.408 1.024-26.2144 1.024-8.8064 0-17.6128-0.4096-26.2144-1.024-23.552-1.6384-46.4896-5.7344-68.8128-12.0832-57.1392-15.9744-109.3632-46.4896-152.576-89.4976-66.1504-66.1504-102.6048-154.0096-102.6048-247.6032S198.656 234.0864 264.8064 167.936c66.3552-65.9456 154.2144-102.4 247.808-102.4 93.3888 0 181.4528 36.4544 247.6032 102.6048 66.1504 66.1504 102.6048 154.0096 102.6048 247.6032 0 93.3888-36.4544 181.4528-102.6048 247.6032-43.2128 42.8032-95.6416 73.3184-152.7808 89.2928z" p-id="33748"></path><path d="M512.6144 287.744c70.4512 0 127.7952 57.344 127.7952 127.7952s-57.344 127.7952-127.7952 127.7952-127.7952-57.344-127.7952-127.7952 57.344-127.7952 127.7952-127.7952m0-65.536c-106.7008 0-193.3312 86.6304-193.3312 193.3312s86.6304 193.3312 193.3312 193.3312c106.7008 0 193.3312-86.6304 193.3312-193.3312s-86.6304-193.3312-193.3312-193.3312z" p-id="33749"></path></svg>