<?xml version="1.0" standalone="no"?><!DOCTYPE svg PUBLIC "-//W3C//DTD SVG 1.1//EN" "http://www.w3.org/Graphics/SVG/1.1/DTD/svg11.dtd"><svg t="1723872905071" class="icon" viewBox="0 0 1024 1024" version="1.1" xmlns="http://www.w3.org/2000/svg" p-id="2318" xmlns:xlink="http://www.w3.org/1999/xlink" width="200" height="200"><path d="M860.586667 393.813333l-597.333334-246.613333a128 128 0 0 0-170.666666 157.866667L158.293333 512l-67.413333 206.933333A128 128 0 0 0 125.44 853.333333a128 128 0 0 0 85.333333 34.133334 128 128 0 0 0 49.066667-9.813334l599.466667-246.613333a128 128 0 0 0 0-236.373333zM228.693333 797.866667a42.666667 42.666667 0 0 1-45.226666-8.106667 42.666667 42.666667 0 0 1-11.52-42.666667L234.24 554.666667h585.813333z m5.546667-328.533334L170.666667 278.613333a42.666667 42.666667 0 0 1 11.52-42.666666A42.666667 42.666667 0 0 1 213.333333 222.72a42.666667 42.666667 0 0 1 16.64 3.413333L820.053333 469.333333z" p-id="2319"></path></svg>