<?xml version="1.0" standalone="no"?><!DOCTYPE svg PUBLIC "-//W3C//DTD SVG 1.1//EN" "http://www.w3.org/Graphics/SVG/1.1/DTD/svg11.dtd"><svg t="1704093179623" class="icon" viewBox="0 0 1024 1024" version="1.1" xmlns="http://www.w3.org/2000/svg" p-id="9729" xmlns:xlink="http://www.w3.org/1999/xlink" width="144" height="144"><path d="M512 129.792c-25.898667 0-51.818667 12.8-64.853333 38.464L158.08 737.664c-15.274667 30.08-8.874667 64.64 9.962667 87.125333 18.837333 22.485333 51.754667 34.816 84.053333 25.045334L512 771.050667l259.925333 78.784c32.256 9.770667 65.152-2.56 83.989334-25.045334 18.837333-22.464 25.258667-57.002667 10.005333-87.082666a32 32 0 0 0 0-0.042667L576.853333 168.256c-13.034667-25.642667-38.954667-38.464-64.853333-38.464z m0 61.376c2.858667 0 5.696 2.026667 7.744 6.08l289.088 569.408c3.690667 7.253333 2.026667 12.266667-1.962667 17.002667-3.968 4.757333-8.618667 7.274667-16.426666 4.906666l-269.141334-81.557333a32 32 0 0 0-18.602666 0l-269.162667 81.578667c-7.808 2.346667-12.48-0.170667-16.448-4.906667-3.989333-4.757333-5.610667-9.749333-1.92-17.002667l289.066667-569.429333c2.069333-4.053333 4.906667-6.08 7.765333-6.08z" p-id="9730"></path></svg>